{
    "asset" : {
        "generator" : "Khronos glTF Blender I/O v1.6.16",
        "version" : "2.0"
    },
    "scene" : 0,
    "scenes" : [
        {
            "name" : "Scene",
            "nodes" : [
                0,
                1,
                2,
                3,
                4,
                5,
                6,
                7
            ]
        }
    ],
    "nodes" : [
        {
            "name" : "Light",
            "rotation" : [
                0.16907575726509094,
                0.7558803558349609,
                -0.27217137813568115,
                0.570947527885437
            ],
            "translation" : [
                4.076245307922363,
                5.903861999511719,
                -1.0054539442062378
            ]
        },
        {
            "name" : "Camera",
            "rotation" : [
                0.483536034822464,
                0.33687159419059753,
                -0.20870360732078552,
                0.7804827094078064
            ],
            "translation" : [
                7.358891487121582,
                4.958309173583984,
                6.925790786743164
            ]
        },
        {
            "mesh" : 0,
            "name" : "N00b4.002",
            "rotation" : [
                0.7071068286895752,
                0,
                0,
                0.7071067094802856
            ],
            "translation" : [
                4.433329105377197,
                -1.3749245405197144,
                -3.1407172679901123
            ]
        },
        {
            "mesh" : 1,
            "name" : "N00b6.001",
            "rotation" : [
                0.7071068286895752,
                0,
                0,
                0.7071067094802856
            ],
            "translation" : [
                4.302311897277832,
                -1.3749245405197144,
                -3.1407172679901123
            ]
        },
        {
            "mesh" : 2,
            "name" : "N00b3.001",
            "rotation" : [
                0.7071068286895752,
                0,
                0,
                0.7071067094802856
            ],
            "translation" : [
                4.420340538024902,
                -1.3749245405197144,
                -3.1407172679901123
            ]
        },
        {
            "mesh" : 3,
            "name" : "N00b5.001",
            "rotation" : [
                0.7071068286895752,
                0,
                0,
                0.7071067094802856
            ],
            "translation" : [
                4.34109354019165,
                -1.3749245405197144,
                -3.1407172679901123
            ]
        },
        {
            "mesh" : 4,
            "name" : "N00b1.001",
            "rotation" : [
                0.7071068286895752,
                0,
                0,
                0.7071067094802856
            ],
            "translation" : [
                4.339278697967529,
                -1.3749245405197144,
                -3.1407172679901123
            ]
        },
        {
            "mesh" : 5,
            "name" : "N00b7.001",
            "rotation" : [
                0.7071068286895752,
                0,
                0,
                0.7071067094802856
            ],
            "translation" : [
                4.37130880355835,
                -1.3749245405197144,
                -3.1407172679901123
            ]
        }
    ],
    "materials" : [
        {
            "doubleSided" : true,
            "name" : "N00b1Mtl.002",
            "pbrMetallicRoughness" : {
                "baseColorFactor" : [
                    0.8000000715255737,
                    0.7112224698066711,
                    0.056146081537008286,
                    1
                ],
                "metallicFactor" : 0,
                "roughnessFactor" : 0.5
            }
        },
        {
            "doubleSided" : true,
            "name" : "N00b1Mtl.004",
            "pbrMetallicRoughness" : {
                "baseColorFactor" : [
                    0.9745492935180664,
                    1,
                    0.03504844382405281,
                    1
                ],
                "metallicFactor" : 0,
                "roughnessFactor" : 0.5
            }
        },
        {
            "doubleSided" : true,
            "name" : "N00b1Mtl.005",
            "pbrMetallicRoughness" : {
                "baseColorFactor" : [
                    0.14283187687397003,
                    0.7742716073989868,
                    0.4214993417263031,
                    1
                ],
                "metallicFactor" : 0,
                "roughnessFactor" : 0.5
            }
        },
        {
            "doubleSided" : true,
            "name" : "N00b1Mtl.006",
            "pbrMetallicRoughness" : {
                "baseColorFactor" : [
                    0.14283187687397003,
                    0.7742716073989868,
                    0.4214993417263031,
                    1
                ],
                "metallicFactor" : 0,
                "roughnessFactor" : 0.5
            }
        },
        {
            "doubleSided" : true,
            "name" : "N00b1Mtl.007",
            "pbrMetallicRoughness" : {
                "baseColorFactor" : [
                    0.800000011920929,
                    0.800000011920929,
                    0.800000011920929,
                    1
                ],
                "metallicFactor" : 0,
                "roughnessFactor" : 0.4000000059604645
            }
        },
        {
            "doubleSided" : true,
            "name" : "N00b1Mtl.008",
            "pbrMetallicRoughness" : {
                "baseColorFactor" : [
                    0.800000011920929,
                    0.800000011920929,
                    0.800000011920929,
                    1
                ],
                "metallicFactor" : 0,
                "roughnessFactor" : 0.4000000059604645
            }
        }
    ],
    "meshes" : [
        {
            "name" : "N00b4.002",
            "primitives" : [
                {
                    "attributes" : {
                        "POSITION" : 0,
                        "NORMAL" : 1,
                        "TEXCOORD_0" : 2
                    },
                    "indices" : 3,
                    "material" : 0
                }
            ]
        },
        {
            "name" : "N00b6.001",
            "primitives" : [
                {
                    "attributes" : {
                        "POSITION" : 4,
                        "NORMAL" : 5,
                        "TEXCOORD_0" : 6
                    },
                    "indices" : 7,
                    "material" : 1
                }
            ]
        },
        {
            "name" : "N00b3.001",
            "primitives" : [
                {
                    "attributes" : {
                        "POSITION" : 8,
                        "NORMAL" : 9,
                        "TEXCOORD_0" : 10
                    },
                    "indices" : 3,
                    "material" : 2
                }
            ]
        },
        {
            "name" : "N00b5.001",
            "primitives" : [
                {
                    "attributes" : {
                        "POSITION" : 11,
                        "NORMAL" : 12,
                        "TEXCOORD_0" : 13
                    },
                    "indices" : 7,
                    "material" : 3
                }
            ]
        },
        {
            "name" : "N00b1.001",
            "primitives" : [
                {
                    "attributes" : {
                        "POSITION" : 14,
                        "NORMAL" : 15,
                        "TEXCOORD_0" : 16
                    },
                    "indices" : 7,
                    "material" : 4
                }
            ]
        },
        {
            "name" : "N00b7.001",
            "primitives" : [
                {
                    "attributes" : {
                        "POSITION" : 17,
                        "NORMAL" : 18,
                        "TEXCOORD_0" : 19
                    },
                    "indices" : 20,
                    "material" : 5
                }
            ]
        }
    ],
    "accessors" : [
        {
            "bufferView" : 0,
            "componentType" : 5126,
            "count" : 42,
            "max" : [
                -6.139172077178955,
                1.7993969917297363,
                0.10947299748659134
            ],
            "min" : [
                -7.139172077178955,
                0.7993959784507751,
                -1.8905270099639893
            ],
            "type" : "VEC3"
        },
        {
            "bufferView" : 1,
            "componentType" : 5126,
            "count" : 42,
            "type" : "VEC3"
        },
        {
            "bufferView" : 2,
            "componentType" : 5126,
            "count" : 42,
            "type" : "VEC2"
        },
        {
            "bufferView" : 3,
            "componentType" : 5123,
            "count" : 132,
            "type" : "SCALAR"
        },
        {
            "bufferView" : 4,
            "componentType" : 5126,
            "count" : 42,
            "max" : [
                -6.139172077178955,
                4.799396991729736,
                0.10947400331497192
            ],
            "min" : [
                -7.139172077178955,
                3.79939603805542,
                -1.8905270099639893
            ],
            "type" : "VEC3"
        },
        {
            "bufferView" : 5,
            "componentType" : 5126,
            "count" : 42,
            "type" : "VEC3"
        },
        {
            "bufferView" : 6,
            "componentType" : 5126,
            "count" : 42,
            "type" : "VEC2"
        },
        {
            "bufferView" : 7,
            "componentType" : 5123,
            "count" : 132,
            "type" : "SCALAR"
        },
        {
            "bufferView" : 8,
            "componentType" : 5126,
            "count" : 42,
            "max" : [
                -6.139172077178955,
                2.79939603805542,
                2.109477996826172
            ],
            "min" : [
                -7.139172077178955,
                1.79939603805542,
                0.10947299748659134
            ],
            "type" : "VEC3"
        },
        {
            "bufferView" : 9,
            "componentType" : 5126,
            "count" : 42,
            "type" : "VEC3"
        },
        {
            "bufferView" : 10,
            "componentType" : 5126,
            "count" : 42,
            "type" : "VEC2"
        },
        {
            "bufferView" : 11,
            "componentType" : 5126,
            "count" : 42,
            "max" : [
                -6.139172077178955,
                3.79939603805542,
                2.109477996826172
            ],
            "min" : [
                -7.139172077178955,
                2.79939603805542,
                0.10947299748659134
            ],
            "type" : "VEC3"
        },
        {
            "bufferView" : 12,
            "componentType" : 5126,
            "count" : 42,
            "type" : "VEC3"
        },
        {
            "bufferView" : 13,
            "componentType" : 5126,
            "count" : 42,
            "type" : "VEC2"
        },
        {
            "bufferView" : 14,
            "componentType" : 5126,
            "count" : 42,
            "max" : [
                -6.139172077178955,
                3.7993969917297363,
                0.10947400331497192
            ],
            "min" : [
                -7.139172077178955,
                1.79939603805542,
                -1.8905270099639893
            ],
            "type" : "VEC3"
        },
        {
            "bufferView" : 15,
            "componentType" : 5126,
            "count" : 42,
            "type" : "VEC3"
        },
        {
            "bufferView" : 16,
            "componentType" : 5126,
            "count" : 42,
            "type" : "VEC2"
        },
        {
            "bufferView" : 17,
            "componentType" : 5126,
            "count" : 517,
            "max" : [
                -6.040252208709717,
                3.398297071456909,
                -1.7893060445785522
            ],
            "min" : [
                -7.238091945648193,
                2.2004969120025635,
                -2.991736888885498
            ],
            "type" : "VEC3"
        },
        {
            "bufferView" : 18,
            "componentType" : 5126,
            "count" : 517,
            "type" : "VEC3"
        },
        {
            "bufferView" : 19,
            "componentType" : 5126,
            "count" : 517,
            "type" : "VEC2"
        },
        {
            "bufferView" : 20,
            "componentType" : 5123,
            "count" : 2538,
            "type" : "SCALAR"
        }
    ],
    "bufferViews" : [
        {
            "buffer" : 0,
            "byteLength" : 504,
            "byteOffset" : 0
        },
        {
            "buffer" : 0,
            "byteLength" : 504,
            "byteOffset" : 504
        },
        {
            "buffer" : 0,
            "byteLength" : 336,
            "byteOffset" : 1008
        },
        {
            "buffer" : 0,
            "byteLength" : 264,
            "byteOffset" : 1344
        },
        {
            "buffer" : 0,
            "byteLength" : 504,
            "byteOffset" : 1608
        },
        {
            "buffer" : 0,
            "byteLength" : 504,
            "byteOffset" : 2112
        },
        {
            "buffer" : 0,
            "byteLength" : 336,
            "byteOffset" : 2616
        },
        {
            "buffer" : 0,
            "byteLength" : 264,
            "byteOffset" : 2952
        },
        {
            "buffer" : 0,
            "byteLength" : 504,
            "byteOffset" : 3216
        },
        {
            "buffer" : 0,
            "byteLength" : 504,
            "byteOffset" : 3720
        },
        {
            "buffer" : 0,
            "byteLength" : 336,
            "byteOffset" : 4224
        },
        {
            "buffer" : 0,
            "byteLength" : 504,
            "byteOffset" : 4560
        },
        {
            "buffer" : 0,
            "byteLength" : 504,
            "byteOffset" : 5064
        },
        {
            "buffer" : 0,
            "byteLength" : 336,
            "byteOffset" : 5568
        },
        {
            "buffer" : 0,
            "byteLength" : 504,
            "byteOffset" : 5904
        },
        {
            "buffer" : 0,
            "byteLength" : 504,
            "byteOffset" : 6408
        },
        {
            "buffer" : 0,
            "byteLength" : 336,
            "byteOffset" : 6912
        },
        {
            "buffer" : 0,
            "byteLength" : 6204,
            "byteOffset" : 7248
        },
        {
            "buffer" : 0,
            "byteLength" : 6204,
            "byteOffset" : 13452
        },
        {
            "buffer" : 0,
            "byteLength" : 4136,
            "byteOffset" : 19656
        },
        {
            "buffer" : 0,
            "byteLength" : 5076,
            "byteOffset" : 23792
        }
    ],
    "buffers" : [
        {
            "byteLength" : 28868,
            "uri" : "data:application/octet-stream;base64,"
        }
    ]
}
