{
    "asset" : {
        "generator" : "Khronos glTF Blender I/O v1.6.16",
        "version" : "2.0"
    },
    "scene" : 0,
    "scenes" : [
        {
            "name" : "Scene",
            "nodes" : [
                0,
                1,
                2,
                3,
                4,
                5,
                6
            ]
        }
    ],
    "nodes" : [
        {
            "name" : "Camera",
            "rotation" : [
                0.483536034822464,
                0.33687159419059753,
                -0.20870360732078552,
                0.7804827094078064
            ],
            "translation" : [
                7.358891487121582,
                4.958309173583984,
                6.925790786743164
            ]
        },
        {
            "mesh" : 0,
            "name" : "OutBoddy_Cube.002",
            "rotation" : [
                0.7071068286895752,
                0,
                0,
                0.7071067094802856
            ]
        },
        {
            "mesh" : 1,
            "name" : "DoorBoddy_Cube.001",
            "rotation" : [
                0.669112503528595,
                -0.22866682708263397,
                0.22866685688495636,
                0.6691123843193054
            ],
            "translation" : [
                -0.662865400314331,
                0,
                2.609584093093872
            ]
        },
        {
            "mesh" : 2,
            "name" : "Locker.001_Cube.004",
            "rotation" : [
                0.669112503528595,
                -0.22866682708263397,
                0.22866685688495636,
                0.6691123843193054
            ],
            "translation" : [
                -0.662865400314331,
                0,
                2.609584093093872
            ]
        },
        {
            "mesh" : 3,
            "name" : "Mesh.001_Icosphere.001",
            "rotation" : [
                0.669112503528595,
                -0.22866682708263397,
                0.22866685688495636,
                0.6691123843193054
            ],
            "translation" : [
                -0.662865400314331,
                0,
                2.609584093093872
            ]
        },
        {
            "mesh" : 4,
            "name" : "Locker_Cube.003",
            "rotation" : [
                0.669112503528595,
                -0.22866682708263397,
                0.22866685688495636,
                0.6691123843193054
            ],
            "translation" : [
                -0.662865400314331,
                0,
                2.609584093093872
            ]
        },
        {
            "mesh" : 5,
            "name" : "Mesh_Icosphere",
            "rotation" : [
                0.669112503528595,
                -0.22866682708263397,
                0.22866685688495636,
                0.6691123843193054
            ],
            "translation" : [
                -0.662865400314331,
                0,
                2.609584093093872
            ]
        }
    ],
    "materials" : [
        {
            "doubleSided" : true,
            "name" : "text",
            "pbrMetallicRoughness" : {
                "baseColorFactor" : [
                    0.45753368735313416,
                    0.22627583146095276,
                    0.0570998378098011,
                    1
                ],
                "metallicFactor" : 0,
                "roughnessFactor" : 0.5
            }
        },
        {
            "doubleSided" : true,
            "name" : "text.001",
            "pbrMetallicRoughness" : {
                "baseColorFactor" : [
                    0.28100860118865967,
                    0.09588076919317245,
                    0.046692922711372375,
                    1
                ],
                "metallicFactor" : 0,
                "roughnessFactor" : 0.5
            }
        },
        {
            "doubleSided" : true,
            "name" : "text.005",
            "pbrMetallicRoughness" : {
                "baseColorFactor" : [
                    0.800000011920929,
                    0.800000011920929,
                    0.800000011920929,
                    1
                ],
                "metallicFactor" : 0,
                "roughnessFactor" : 0.5
            }
        },
        {
            "doubleSided" : true,
            "name" : "text.006",
            "pbrMetallicRoughness" : {
                "baseColorFactor" : [
                    0.800000011920929,
                    0.800000011920929,
                    0.800000011920929,
                    1
                ],
                "metallicFactor" : 0,
                "roughnessFactor" : 0.5
            }
        },
        {
            "doubleSided" : true,
            "name" : "text.002",
            "pbrMetallicRoughness" : {
                "baseColorFactor" : [
                    0.800000011920929,
                    0.800000011920929,
                    0.800000011920929,
                    1
                ],
                "metallicFactor" : 0,
                "roughnessFactor" : 0.5
            }
        },
        {
            "doubleSided" : true,
            "name" : "text.004",
            "pbrMetallicRoughness" : {
                "baseColorFactor" : [
                    0.800000011920929,
                    0.800000011920929,
                    0.800000011920929,
                    1
                ],
                "metallicFactor" : 0,
                "roughnessFactor" : 0.5
            }
        },
        {
            "doubleSided" : true,
            "name" : "text.003",
            "pbrMetallicRoughness" : {
                "baseColorFactor" : [
                    0.800000011920929,
                    0.800000011920929,
                    0.800000011920929,
                    1
                ],
                "metallicFactor" : 0,
                "roughnessFactor" : 0.5
            }
        }
    ],
    "meshes" : [
        {
            "name" : "OutBoddy_Cube.002",
            "primitives" : [
                {
                    "attributes" : {
                        "POSITION" : 0,
                        "NORMAL" : 1,
                        "TEXCOORD_0" : 2
                    },
                    "indices" : 3,
                    "material" : 0
                }
            ]
        },
        {
            "name" : "DoorBoddy_Cube.001",
            "primitives" : [
                {
                    "attributes" : {
                        "POSITION" : 4,
                        "NORMAL" : 5,
                        "TEXCOORD_0" : 6
                    },
                    "indices" : 7,
                    "material" : 1
                },
                {
                    "attributes" : {
                        "POSITION" : 8,
                        "NORMAL" : 9,
                        "TEXCOORD_0" : 10
                    },
                    "indices" : 11,
                    "material" : 2
                },
                {
                    "attributes" : {
                        "POSITION" : 12,
                        "NORMAL" : 13,
                        "TEXCOORD_0" : 14
                    },
                    "indices" : 15,
                    "material" : 3
                }
            ]
        },
        {
            "name" : "Locker.001_Cube.004",
            "primitives" : [
                {
                    "attributes" : {
                        "POSITION" : 16,
                        "NORMAL" : 17,
                        "TEXCOORD_0" : 18
                    },
                    "indices" : 19,
                    "material" : 4
                },
                {
                    "attributes" : {
                        "POSITION" : 20,
                        "NORMAL" : 21,
                        "TEXCOORD_0" : 22
                    },
                    "indices" : 23,
                    "material" : 5
                }
            ]
        },
        {
            "name" : "Mesh.001_Icosphere.001",
            "primitives" : [
                {
                    "attributes" : {
                        "POSITION" : 24,
                        "NORMAL" : 25,
                        "TEXCOORD_0" : 26
                    },
                    "indices" : 27,
                    "material" : 6
                }
            ]
        },
        {
            "name" : "Locker_Cube.003",
            "primitives" : [
                {
                    "attributes" : {
                        "POSITION" : 28,
                        "NORMAL" : 29,
                        "TEXCOORD_0" : 30
                    },
                    "indices" : 19,
                    "material" : 4
                },
                {
                    "attributes" : {
                        "POSITION" : 31,
                        "NORMAL" : 32,
                        "TEXCOORD_0" : 33
                    },
                    "indices" : 23,
                    "material" : 5
                }
            ]
        },
        {
            "name" : "Mesh_Icosphere",
            "primitives" : [
                {
                    "attributes" : {
                        "POSITION" : 34,
                        "NORMAL" : 35,
                        "TEXCOORD_0" : 36
                    },
                    "indices" : 27,
                    "material" : 6
                }
            ]
        }
    ],
    "accessors" : [
        {
            "bufferView" : 0,
            "componentType" : 5126,
            "count" : 208,
            "max" : [
                3.1821579933166504,
                0.5194889903068542,
                -0.39409399032592773
            ],
            "min" : [
                -3.9978060722351074,
                -0.5100190043449402,
                -12.813814163208008
            ],
            "type" : "VEC3"
        },
        {
            "bufferView" : 1,
            "componentType" : 5126,
            "count" : 208,
            "type" : "VEC3"
        },
        {
            "bufferView" : 2,
            "componentType" : 5126,
            "count" : 208,
            "type" : "VEC2"
        },
        {
            "bufferView" : 3,
            "componentType" : 5123,
            "count" : 708,
            "type" : "SCALAR"
        },
        {
            "bufferView" : 4,
            "componentType" : 5126,
            "count" : 1120,
            "max" : [
                2.8904480934143066,
                0.17603300511837006,
                -0.42710599303245544
            ],
            "min" : [
                -3.6867470741271973,
                -0.2141759991645813,
                -12.503396987915039
            ],
            "type" : "VEC3"
        },
        {
            "bufferView" : 5,
            "componentType" : 5126,
            "count" : 1120,
            "type" : "VEC3"
        },
        {
            "bufferView" : 6,
            "componentType" : 5126,
            "count" : 1120,
            "type" : "VEC2"
        },
        {
            "bufferView" : 7,
            "componentType" : 5123,
            "count" : 4302,
            "type" : "SCALAR"
        },
        {
            "bufferView" : 8,
            "componentType" : 5126,
            "count" : 20,
            "max" : [
                2.958415985107422,
                0.03221200034022331,
                -6.484595775604248
            ],
            "min" : [
                2.8778328895568848,
                -0.09140600264072418,
                -6.806402206420898
            ],
            "type" : "VEC3"
        },
        {
            "bufferView" : 9,
            "componentType" : 5126,
            "count" : 20,
            "type" : "VEC3"
        },
        {
            "bufferView" : 10,
            "componentType" : 5126,
            "count" : 20,
            "type" : "VEC2"
        },
        {
            "bufferView" : 11,
            "componentType" : 5123,
            "count" : 54,
            "type" : "SCALAR"
        },
        {
            "bufferView" : 12,
            "componentType" : 5126,
            "count" : 22,
            "max" : [
                2.8991899490356445,
                0.08674000203609467,
                -6.004965782165527
            ],
            "min" : [
                2.8663370609283447,
                -0.18208399415016174,
                -7.347084999084473
            ],
            "type" : "VEC3"
        },
        {
            "bufferView" : 13,
            "componentType" : 5126,
            "count" : 22,
            "type" : "VEC3"
        },
        {
            "bufferView" : 14,
            "componentType" : 5126,
            "count" : 22,
            "type" : "VEC2"
        },
        {
            "bufferView" : 15,
            "componentType" : 5123,
            "count" : 36,
            "type" : "SCALAR"
        },
        {
            "bufferView" : 16,
            "componentType" : 5126,
            "count" : 176,
            "max" : [
                2.5527451038360596,
                0.16778600215911865,
                -5.736145973205566
            ],
            "min" : [
                2.1680569648742676,
                0.11174800246953964,
                -7.507615089416504
            ],
            "type" : "VEC3"
        },
        {
            "bufferView" : 17,
            "componentType" : 5126,
            "count" : 176,
            "type" : "VEC3"
        },
        {
            "bufferView" : 18,
            "componentType" : 5126,
            "count" : 176,
            "type" : "VEC2"
        },
        {
            "bufferView" : 19,
            "componentType" : 5123,
            "count" : 612,
            "type" : "SCALAR"
        },
        {
            "bufferView" : 20,
            "componentType" : 5126,
            "count" : 253,
            "max" : [
                2.4730019569396973,
                0.2294670045375824,
                -6.2597551345825195
            ],
            "min" : [
                2.2357840538024902,
                0.14411599934101105,
                -6.508886814117432
            ],
            "type" : "VEC3"
        },
        {
            "bufferView" : 21,
            "componentType" : 5126,
            "count" : 253,
            "type" : "VEC3"
        },
        {
            "bufferView" : 22,
            "componentType" : 5126,
            "count" : 253,
            "type" : "VEC2"
        },
        {
            "bufferView" : 23,
            "componentType" : 5123,
            "count" : 648,
            "type" : "SCALAR"
        },
        {
            "bufferView" : 24,
            "componentType" : 5126,
            "count" : 176,
            "max" : [
                2.4503390789031982,
                0.44710901379585266,
                -6.757783889770508
            ],
            "min" : [
                1.9021960496902466,
                0.15625600516796112,
                -6.94145393371582
            ],
            "type" : "VEC3"
        },
        {
            "bufferView" : 25,
            "componentType" : 5126,
            "count" : 176,
            "type" : "VEC3"
        },
        {
            "bufferView" : 26,
            "componentType" : 5126,
            "count" : 176,
            "type" : "VEC2"
        },
        {
            "bufferView" : 27,
            "componentType" : 5123,
            "count" : 600,
            "type" : "SCALAR"
        },
        {
            "bufferView" : 28,
            "componentType" : 5126,
            "count" : 176,
            "max" : [
                2.5537729263305664,
                -0.23448599874973297,
                -5.736145973205566
            ],
            "min" : [
                2.1690850257873535,
                -0.2905229926109314,
                -7.507615089416504
            ],
            "type" : "VEC3"
        },
        {
            "bufferView" : 29,
            "componentType" : 5126,
            "count" : 176,
            "type" : "VEC3"
        },
        {
            "bufferView" : 30,
            "componentType" : 5126,
            "count" : 176,
            "type" : "VEC2"
        },
        {
            "bufferView" : 31,
            "componentType" : 5126,
            "count" : 253,
            "max" : [
                2.486046075820923,
                -0.266853004693985,
                -6.2597551345825195
            ],
            "min" : [
                2.2488269805908203,
                -0.35220399498939514,
                -6.508886814117432
            ],
            "type" : "VEC3"
        },
        {
            "bufferView" : 32,
            "componentType" : 5126,
            "count" : 253,
            "type" : "VEC3"
        },
        {
            "bufferView" : 33,
            "componentType" : 5126,
            "count" : 253,
            "type" : "VEC2"
        },
        {
            "bufferView" : 34,
            "componentType" : 5126,
            "count" : 176,
            "max" : [
                2.4598660469055176,
                -0.26828500628471375,
                -6.756134986877441
            ],
            "min" : [
                1.9018269777297974,
                -0.5737419724464417,
                -6.944064140319824
            ],
            "type" : "VEC3"
        },
        {
            "bufferView" : 35,
            "componentType" : 5126,
            "count" : 176,
            "type" : "VEC3"
        },
        {
            "bufferView" : 36,
            "componentType" : 5126,
            "count" : 176,
            "type" : "VEC2"
        }
    ],
    "bufferViews" : [
        {
            "buffer" : 0,
            "byteLength" : 2496,
            "byteOffset" : 0
        },
        {
            "buffer" : 0,
            "byteLength" : 2496,
            "byteOffset" : 2496
        },
        {
            "buffer" : 0,
            "byteLength" : 1664,
            "byteOffset" : 4992
        },
        {
            "buffer" : 0,
            "byteLength" : 1416,
            "byteOffset" : 6656
        },
        {
            "buffer" : 0,
            "byteLength" : 13440,
            "byteOffset" : 8072
        },
        {
            "buffer" : 0,
            "byteLength" : 13440,
            "byteOffset" : 21512
        },
        {
            "buffer" : 0,
            "byteLength" : 8960,
            "byteOffset" : 34952
        },
        {
            "buffer" : 0,
            "byteLength" : 8604,
            "byteOffset" : 43912
        },
        {
            "buffer" : 0,
            "byteLength" : 240,
            "byteOffset" : 52516
        },
        {
            "buffer" : 0,
            "byteLength" : 240,
            "byteOffset" : 52756
        },
        {
            "buffer" : 0,
            "byteLength" : 160,
            "byteOffset" : 52996
        },
        {
            "buffer" : 0,
            "byteLength" : 108,
            "byteOffset" : 53156
        },
        {
            "buffer" : 0,
            "byteLength" : 264,
            "byteOffset" : 53264
        },
        {
            "buffer" : 0,
            "byteLength" : 264,
            "byteOffset" : 53528
        },
        {
            "buffer" : 0,
            "byteLength" : 176,
            "byteOffset" : 53792
        },
        {
            "buffer" : 0,
            "byteLength" : 72,
            "byteOffset" : 53968
        },
        {
            "buffer" : 0,
            "byteLength" : 2112,
            "byteOffset" : 54040
        },
        {
            "buffer" : 0,
            "byteLength" : 2112,
            "byteOffset" : 56152
        },
        {
            "buffer" : 0,
            "byteLength" : 1408,
            "byteOffset" : 58264
        },
        {
            "buffer" : 0,
            "byteLength" : 1224,
            "byteOffset" : 59672
        },
        {
            "buffer" : 0,
            "byteLength" : 3036,
            "byteOffset" : 60896
        },
        {
            "buffer" : 0,
            "byteLength" : 3036,
            "byteOffset" : 63932
        },
        {
            "buffer" : 0,
            "byteLength" : 2024,
            "byteOffset" : 66968
        },
        {
            "buffer" : 0,
            "byteLength" : 1296,
            "byteOffset" : 68992
        },
        {
            "buffer" : 0,
            "byteLength" : 2112,
            "byteOffset" : 70288
        },
        {
            "buffer" : 0,
            "byteLength" : 2112,
            "byteOffset" : 72400
        },
        {
            "buffer" : 0,
            "byteLength" : 1408,
            "byteOffset" : 74512
        },
        {
            "buffer" : 0,
            "byteLength" : 1200,
            "byteOffset" : 75920
        },
        {
            "buffer" : 0,
            "byteLength" : 2112,
            "byteOffset" : 77120
        },
        {
            "buffer" : 0,
            "byteLength" : 2112,
            "byteOffset" : 79232
        },
        {
            "buffer" : 0,
            "byteLength" : 1408,
            "byteOffset" : 81344
        },
        {
            "buffer" : 0,
            "byteLength" : 3036,
            "byteOffset" : 82752
        },
        {
            "buffer" : 0,
            "byteLength" : 3036,
            "byteOffset" : 85788
        },
        {
            "buffer" : 0,
            "byteLength" : 2024,
            "byteOffset" : 88824
        },
        {
            "buffer" : 0,
            "byteLength" : 2112,
            "byteOffset" : 90848
        },
        {
            "buffer" : 0,
            "byteLength" : 2112,
            "byteOffset" : 92960
        },
        {
            "buffer" : 0,
            "byteLength" : 1408,
            "byteOffset" : 95072
        }
    ],
    "buffers" : [
        {
            "byteLength" : 96480,
            "uri" : "data:application/octet-stream;base64,"
        }
    ]
}
