{
    "asset" : {
        "generator" : "Khronos glTF Blender I/O v1.6.16",
        "version" : "2.0"
    },
    "scene" : 0,
    "scenes" : [
        {
            "name" : "Scene",
            "nodes" : [
                0,
                1,
                2
            ]
        }
    ],
    "nodes" : [
        {
            "name" : "Light",
            "rotation" : [
                0.16907575726509094,
                0.7558803558349609,
                -0.27217137813568115,
                0.570947527885437
            ],
            "translation" : [
                4.076245307922363,
                5.903861999511719,
                -1.0054539442062378
            ]
        },
        {
            "name" : "Camera",
            "rotation" : [
                0.483536034822464,
                0.33687159419059753,
                -0.20870360732078552,
                0.7804827094078064
            ],
            "translation" : [
                7.358891487121582,
                4.958309173583984,
                6.925790786743164
            ]
        },
        {
            "mesh" : 0,
            "name" : "18845_Teddy_Bear_holding_a_heart_to_chest_new",
            "rotation" : [
                0.0726976990699768,
                0.3525446355342865,
                -0.027482548728585243,
                0.9325621128082275
            ],
            "scale" : [
                0.37323474884033203,
                0.37323474884033203,
                0.37323474884033203
            ],
            "translation" : [
                0,
                -1.1425631046295166,
                0
            ]
        }
    ],
    "materials" : [
        {
            "doubleSided" : true,
            "name" : "_18845_Teddy_Bear_holding_a_heart_to_chest_v1default",
            "pbrMetallicRoughness" : {
                "baseColorFactor" : [
                    0.8000000715255737,
                    0.021724538877606392,
                    0.165321484208107,
                    1
                ],
                "metallicFactor" : 0,
                "roughnessFactor" : 0.5
            }
        }
    ],
    "meshes" : [
        {
            "name" : "18845_Teddy_Bear_holding_a_heart_to_chest_new",
            "primitives" : [
                {
                    "attributes" : {
                        "POSITION" : 0,
                        "NORMAL" : 1,
                        "TEXCOORD_0" : 2
                    },
                    "indices" : 3,
                    "material" : 0
                }
            ]
        }
    ],
    "accessors" : [
        {
            "bufferView" : 0,
            "componentType" : 5126,
            "count" : 17392,
            "max" : [
                3.1916000843048096,
                8.260600090026855,
                2.7987000942230225
            ],
            "min" : [
                -2.878700017929077,
                -0.005400000140070915,
                -2.926800012588501
            ],
            "type" : "VEC3"
        },
        {
            "bufferView" : 1,
            "componentType" : 5126,
            "count" : 17392,
            "type" : "VEC3"
        },
        {
            "bufferView" : 2,
            "componentType" : 5126,
            "count" : 17392,
            "type" : "VEC2"
        },
        {
            "bufferView" : 3,
            "componentType" : 5123,
            "count" : 100080,
            "type" : "SCALAR"
        }
    ],
    "bufferViews" : [
        {
            "buffer" : 0,
            "byteLength" : 208704,
            "byteOffset" : 0
        },
        {
            "buffer" : 0,
            "byteLength" : 208704,
            "byteOffset" : 208704
        },
        {
            "buffer" : 0,
            "byteLength" : 139136,
            "byteOffset" : 417408
        },
        {
            "buffer" : 0,
            "byteLength" : 200160,
            "byteOffset" : 556544
        }
    ],
    "buffers" : [
        {
            "byteLength" : 756704,
            "uri" : "data:application/octet-stream;base64,"
        }
    ]
}
